<svg xmlns="http://www.w3.org/2000/svg" xmlns:xlink="http://www.w3.org/1999/xlink" width="2000" zoomAndPan="magnify" viewBox="0 0 1500 1499.999933" height="2000" preserveAspectRatio="xMidYMid meet" version="1.0"><path fill="#000000" d="M 749.914062 976.972656 C 746.488281 976.949219 744.265625 975.023438 743.757812 974.558594 L 545.964844 776.996094 C 498.886719 734.441406 482.695312 669.585938 504.636719 615.742188 C 530.207031 552.988281 594.757812 536.613281 599.105469 535.601562 C 654.566406 522.667969 713.84375 546.753906 749.972656 595.894531 C 786.105469 546.753906 845.390625 522.671875 900.84375 535.601562 C 903.628906 536.25 969.441406 552.246094 995.308594 615.742188 C 1017.417969 670.007812 1000.804688 734.785156 953.980469 776.996094 L 756.191406 974.558594 C 755.695312 975.011719 753.414062 976.996094 749.914062 976.972656 Z M 602.613281 550.628906 C 598.953125 551.484375 541.625 565.890625 518.945312 621.554688 C 499.257812 669.882812 514.332031 727.792969 556.453125 765.660156 L 556.746094 765.941406 L 749.972656 958.945312 L 943.34375 765.796875 L 943.496094 765.660156 C 985.613281 727.792969 1000.6875 669.882812 981 621.554688 C 958.113281 565.375 899.804688 551.203125 897.332031 550.628906 C 844.773438 538.375 788.183594 563.726562 756.5 613.699219 L 749.972656 623.996094 L 743.445312 613.699219 C 711.765625 563.421875 654.703125 538.453125 602.613281 550.628906 Z M 602.613281 550.628906 " fill-opacity="1" fill-rule="nonzero"/></svg>